<svg width="128" height="128" viewBox="0 0 128 128" fill="none" xmlns="http://www.w3.org/2000/svg">
<g clip-path="url(#clip0_1_43)">
<path d="M105.371 85.4934C106.69 85.1661 108.084 85.3544 109.268 86.02C110.453 86.6855 111.339 87.7781 111.745 89.0747C112.151 90.3713 112.047 91.7741 111.455 92.9967C110.862 94.2193 109.824 95.1696 108.555 95.6534L107.963 95.8401L22.6293 117.173C21.3106 117.501 19.9166 117.312 18.732 116.647C17.5474 115.981 16.6615 114.889 16.2552 113.592C15.8488 112.295 15.9527 110.893 16.5456 109.67C17.1385 108.447 18.1756 107.497 19.4453 107.013L20.0373 106.827L105.371 85.4934Z" fill="#ED9B20"/>
<path d="M16.16 89.3707C16.4772 88.1031 17.2488 86.996 18.3283 86.2597C19.4077 85.5233 20.72 85.2089 22.016 85.376L22.6293 85.4934L107.963 106.827C109.283 107.157 110.427 107.978 111.161 109.124C111.894 110.27 112.163 111.652 111.911 112.989C111.659 114.326 110.905 115.516 109.804 116.316C108.703 117.116 107.339 117.464 105.989 117.291L105.371 117.173L20.0373 95.84C18.6653 95.4963 17.486 94.6216 16.7588 93.4083C16.0317 92.1951 15.8163 90.7427 16.16 89.3707ZM72.2826 11.232C50.0213 22.3574 37.3333 39.808 37.3333 58.6667C37.3333 65.7391 40.1428 72.5219 45.1438 77.5229C50.1448 82.5238 56.9275 85.3334 64 85.3334C71.0724 85.3334 77.8552 82.5238 82.8561 77.5229C87.8571 72.5219 90.6666 65.7391 90.6666 58.6667C90.6666 53.0827 89.664 49.024 87.4346 44.24L86.5333 42.4L84.7733 38.9494C81.4613 32.336 80 26.48 80 16C79.9995 15.0913 79.7668 14.1977 79.324 13.4042C78.8812 12.6106 78.243 11.9433 77.4699 11.4657C76.6968 10.988 75.8144 10.7158 74.9066 10.675C73.9988 10.6341 73.0956 10.8258 72.2826 11.232Z" fill="#ED9B20"/>
</g>
<defs>
<clipPath id="clip0_1_43">
<rect width="128" height="128" fill="white"/>
</clipPath>
</defs>
</svg>
