<svg width="128" height="128" viewBox="0 0 128 128" fill="none" xmlns="http://www.w3.org/2000/svg">
<rect width="128" height="128" fill="#1E1E1E"/>
<g id="Slide 16:9 - 1">
<rect width="1920" height="2473" transform="translate(-392 -2309)" fill="black"/>
<g id="tabler:cactus-filled" clip-path="url(#clip0_0_1)">
<g id="Group">
<path id="Vector" d="M37.3334 117.333C35.974 117.332 34.6665 116.811 33.6781 115.878C32.6896 114.945 32.0948 113.67 32.0151 112.313C31.9354 110.956 32.3769 109.619 33.2494 108.577C34.1219 107.534 35.3595 106.865 36.7093 106.704L37.3334 106.667H48V74.6666C42.5267 74.6667 37.2628 72.563 33.297 68.7908C29.3312 65.0186 26.967 59.8664 26.6934 54.4L26.6667 53.3333V48C26.6682 46.6406 27.1887 45.3332 28.1219 44.3447C29.055 43.3562 30.3304 42.7614 31.6875 42.6817C33.0445 42.6021 34.3807 43.0436 35.4231 43.9161C36.4655 44.7886 37.1355 46.0261 37.296 47.376L37.3334 48V53.3333C37.3325 56.0244 38.3489 58.6163 40.1787 60.5896C42.0085 62.5628 44.5165 63.7715 47.2 63.9733L48 64V26.6667C47.996 22.5018 49.6161 18.4996 52.5161 15.5103C55.4161 12.521 59.3674 10.7804 63.5305 10.6581C67.6935 10.5359 71.7401 12.0418 74.8105 14.8558C77.8809 17.6698 79.733 21.5701 79.9733 25.728L80 26.6667V80C82.6911 80.0008 85.283 78.9845 87.2563 77.1547C89.2295 75.3249 90.4382 72.8168 90.64 70.1333L90.6667 69.3333V42.6667C90.6682 41.3073 91.1887 39.9998 92.1219 39.0114C93.055 38.0229 94.3304 37.4281 95.6874 37.3484C97.0445 37.2687 98.3807 37.7103 99.4231 38.5827C100.466 39.4552 101.135 40.6928 101.296 42.0427L101.333 42.6667V69.3333C101.333 74.8066 99.2297 80.0705 95.4575 84.0363C91.6853 88.0021 86.5331 90.3663 81.0667 90.64L80 90.6666V106.667H90.6667C92.026 106.668 93.3335 107.189 94.322 108.122C95.3104 109.055 95.9053 110.33 95.9849 111.687C96.0646 113.044 95.6231 114.381 94.7506 115.423C93.8781 116.465 92.6405 117.135 91.2907 117.296L90.6667 117.333H37.3334Z" fill="#35C91C"/>
</g>
</g>
</g>
<defs>
<clipPath id="clip0_0_1">
<rect width="128" height="128" fill="white"/>
</clipPath>
</defs>
</svg>
