<svg width="128" height="128" viewBox="0 0 128 128" fill="none" xmlns="http://www.w3.org/2000/svg">
<g clip-path="url(#clip0_1_39)">
<path d="M64.0533 10.7253C68.2015 10.7256 72.2076 12.2367 75.3227 14.976L76.144 15.7493L79.8667 19.472C80.8883 20.487 82.2225 21.1278 83.6533 21.2907L84.3733 21.3333H89.7067C94.0652 21.3331 98.2586 23.0004 101.427 25.9933C104.595 28.9862 106.499 33.0779 106.747 37.4293L106.773 38.4V43.7333C106.773 45.1733 107.264 46.576 108.149 47.696L108.629 48.2293L112.347 51.952C115.428 55.0157 117.224 59.1393 117.37 63.482C117.516 67.8246 116 72.0593 113.131 75.3226L112.357 76.144L108.635 79.8667C107.62 80.8883 106.979 82.2224 106.816 83.6533L106.773 84.3733V89.7066C106.774 94.0651 105.106 98.2586 102.113 101.427C99.1205 104.595 95.0288 106.499 90.6773 106.747L89.7067 106.773H84.3733C82.9354 106.774 81.5395 107.258 80.4107 108.149L79.8773 108.629L76.1547 112.347C73.091 115.428 68.9674 117.224 64.6247 117.37C60.282 117.516 56.0473 116 52.784 113.131L51.9627 112.357L48.24 108.635C47.2183 107.62 45.8842 106.979 44.4533 106.816L43.7333 106.773H38.4C34.0415 106.774 29.8481 105.106 26.6796 102.113C23.5112 99.1205 21.6079 95.0287 21.36 90.6773L21.3333 89.7066V84.3733C21.3329 82.9353 20.8481 81.5394 19.9573 80.4106L19.4773 79.8773L15.76 76.1546C12.6788 73.0909 10.8822 68.9674 10.7366 64.6247C10.5909 60.282 12.1071 56.0473 14.976 52.784L15.7493 51.9627L19.472 48.24C20.487 47.2183 21.1277 45.8842 21.2907 44.4533L21.3333 43.7333V38.4L21.36 37.4293C21.5981 33.245 23.3676 29.2947 26.3311 26.3311C29.2947 23.3676 33.245 21.5981 37.4293 21.36L38.4 21.3333H43.7333C45.1713 21.3329 46.5672 20.8482 47.696 19.9573L48.2293 19.4773L51.952 15.76C53.5378 14.1647 55.4233 12.8987 57.5001 12.0347C59.5769 11.1706 61.804 10.7257 64.0533 10.7253ZM83.7707 49.5627C82.7705 48.5628 81.4142 48.0011 80 48.0011C78.5858 48.0011 77.2295 48.5628 76.2293 49.5627L58.6667 67.12L51.7707 60.2293L51.2693 59.7867C50.1974 58.9578 48.8501 58.568 47.5012 58.6965C46.1523 58.825 44.9028 59.4622 44.0067 60.4785C43.1105 61.4949 42.6348 62.8142 42.6761 64.1686C42.7175 65.523 43.2728 66.8109 44.2293 67.7707L54.896 78.4373L55.3973 78.88C56.4235 79.676 57.7048 80.0702 59.001 79.9887C60.2971 79.9072 61.519 79.3556 62.4373 78.4373L83.7707 57.104L84.2133 56.6027C85.0093 55.5765 85.4036 54.2952 85.3221 52.999C85.2406 51.7029 84.6889 50.481 83.7707 49.5627Z" fill="#13B5CB"/>
</g>
<defs>
<clipPath id="clip0_1_39">
<rect width="128" height="128" fill="white"/>
</clipPath>
</defs>
</svg>
