<svg width="128" height="128" viewBox="0 0 128 128" fill="none" xmlns="http://www.w3.org/2000/svg">
<rect width="128" height="128" fill="#1E1E1E"/>
<g id="Slide 16:9 - 1">
<rect width="1920" height="2473" transform="translate(-648 -2309)" fill="black"/>
<g id="tabler:bomb-filled" clip-path="url(#clip0_0_1)">
<g id="Group">
<path id="Vector" d="M77.328 21.312C78.8694 21.3122 80.3957 21.6161 81.8196 22.2064C83.2435 22.7966 84.5371 23.6616 85.6266 24.752L103.237 42.3573C104.328 43.4471 105.194 44.7411 105.784 46.1655C106.375 47.5899 106.679 49.1167 106.679 50.6587C106.679 52.2006 106.375 53.7274 105.784 55.1518C105.194 56.5763 104.328 57.8703 103.237 58.96L100.213 61.984L100.443 63.008C102.248 71.949 101.314 81.2265 97.7629 89.6283C94.2119 98.03 88.209 105.165 80.5386 110.101L79.312 110.869C72.9933 114.656 65.8471 116.845 58.4919 117.249C51.1366 117.652 43.7939 116.257 37.0991 113.184C30.4043 110.111 24.5592 105.453 20.0695 99.6133C15.5799 93.7733 12.581 86.9272 11.3324 79.6675C10.0838 72.4077 10.6231 64.9531 12.9036 57.9487C15.1842 50.9443 19.1372 44.6011 24.4207 39.4682C29.7042 34.3352 36.1589 30.567 43.2262 28.4898C50.2936 26.4126 57.7607 26.0889 64.9813 27.5467L66.0053 27.7707L69.0293 24.752C70.9773 22.8036 73.5488 21.6028 76.2933 21.36L77.328 21.312ZM53.3333 48C47.6754 48 42.2492 50.2476 38.2484 54.2484C34.2476 58.2492 32 63.6754 32 69.3334C32 70.7478 32.5619 72.1044 33.5621 73.1046C34.5623 74.1048 35.9188 74.6667 37.3333 74.6667C38.7478 74.6667 40.1044 74.1048 41.1046 73.1046C42.1047 72.1044 42.6667 70.7478 42.6667 69.3334C42.6667 66.5044 43.7905 63.7913 45.7908 61.7909C47.7912 59.7905 50.5043 58.6667 53.3333 58.6667C54.7478 58.6667 56.1044 58.1048 57.1046 57.1046C58.1047 56.1044 58.6667 54.7478 58.6667 53.3333C58.6667 51.9189 58.1047 50.5623 57.1046 49.5621C56.1044 48.5619 54.7478 48 53.3333 48Z" fill="#B53BDF"/>
<path id="Vector_2" d="M112 10.6666C113.359 10.6681 114.667 11.1886 115.655 12.1218C116.644 13.055 117.239 14.3304 117.318 15.6874C117.398 17.0444 116.956 18.3807 116.084 19.4231C115.211 20.4655 113.974 21.1354 112.624 21.296L112 21.3333H106.667C106.667 25.76 105.056 30.0213 102.155 33.3333L101.333 34.2026L94.4374 41.0986C93.4776 42.0551 92.1897 42.6105 90.8353 42.6518C89.4809 42.6932 88.1616 42.2175 87.1452 41.3213C86.1289 40.4251 85.4917 39.1757 85.3632 37.8268C85.2347 36.4778 85.6245 35.1306 86.4534 34.0586L86.896 33.5573L93.792 26.6666C95.0294 25.4293 95.792 23.8026 95.9627 22.08L96 21.3333C95.9992 18.6422 97.0155 16.0503 98.8453 14.077C100.675 12.1038 103.183 10.8951 105.867 10.6933L106.667 10.6666H112Z" fill="#B53BDF"/>
</g>
</g>
</g>
<defs>
<clipPath id="clip0_0_1">
<rect width="128" height="128" fill="white"/>
</clipPath>
</defs>
</svg>
