<svg width="128" height="128" viewBox="0 0 128 128" fill="none" xmlns="http://www.w3.org/2000/svg">
<g clip-path="url(#clip0_1_48)">
<path d="M21.3333 58.6666C22.6927 58.6681 24.0001 59.1886 24.9886 60.1218C25.9771 61.055 26.5719 62.3304 26.6516 63.6874C26.7312 65.0444 26.2897 66.3806 25.4172 67.4231C24.5447 68.4655 23.3071 69.1354 21.9573 69.296L21.3333 69.3333H16C14.6406 69.3318 13.3331 68.8113 12.3447 67.8781C11.3562 66.9449 10.7614 65.6695 10.6817 64.3125C10.6021 62.9555 11.0436 61.6193 11.9161 60.5769C12.7885 59.5344 14.0261 58.8645 15.376 58.704L16 58.6666H21.3333ZM64 10.6666C65.3063 10.6668 66.5671 11.1464 67.5433 12.0144C68.5195 12.8825 69.1431 14.0786 69.296 15.376L69.3333 16V21.3333C69.3318 22.6926 68.8113 24.0001 67.8781 24.9886C66.9449 25.977 65.6695 26.5719 64.3125 26.6515C62.9555 26.7312 61.6193 26.2897 60.5769 25.4172C59.5344 24.5447 58.8645 23.3071 58.704 21.9573L58.6666 21.3333V16C58.6666 14.5855 59.2285 13.2289 60.2287 12.2287C61.2289 11.2285 62.5855 10.6666 64 10.6666ZM112 58.6666C113.359 58.6681 114.667 59.1886 115.655 60.1218C116.644 61.055 117.239 62.3304 117.318 63.6874C117.398 65.0444 116.956 66.3806 116.084 67.4231C115.211 68.4655 113.974 69.1354 112.624 69.296L112 69.3333H106.667C105.307 69.3318 104 68.8113 103.011 67.8781C102.023 66.9449 101.428 65.6695 101.348 64.3125C101.269 62.9555 101.71 61.6193 102.583 60.5769C103.455 59.5344 104.693 58.8645 106.043 58.704L106.667 58.6666H112ZM26.096 26.096C27.0143 25.1777 28.2362 24.626 29.5323 24.5445C30.8285 24.463 32.1098 24.8573 33.136 25.6533L33.6373 26.096L37.3706 29.8293C38.3272 30.7891 38.8825 32.0769 38.9239 33.4313C38.9652 34.7857 38.4895 36.1051 37.5933 37.1214C36.6971 38.1378 35.4477 38.7749 34.0988 38.9034C32.7498 39.0319 31.4026 38.6422 30.3306 37.8133L29.8293 37.3706L26.096 33.6373C25.0961 32.6371 24.5344 31.2808 24.5344 29.8666C24.5344 28.4524 25.0961 27.0961 26.096 26.096ZM94.3626 26.096C95.3224 25.1394 96.6103 24.5841 97.9647 24.5427C99.3191 24.5014 100.638 24.9771 101.655 25.8733C102.671 26.7695 103.308 28.0189 103.437 29.3678C103.565 30.7167 103.175 32.064 102.347 33.136L101.904 33.6373L98.1706 37.3706C97.2108 38.3271 95.923 38.8825 94.5686 38.9238C93.2142 38.9652 91.8948 38.4895 90.8785 37.5933C89.8621 36.6971 89.225 35.4477 89.0965 34.0988C88.968 32.7498 89.3578 31.4026 90.1866 30.3306L90.6293 29.8293L94.3626 26.096ZM74.6666 96C76.0811 96 77.4377 96.5619 78.4379 97.562C79.4381 98.5622 80 99.9188 80 101.333C80 105.577 78.3143 109.646 75.3137 112.647C72.3131 115.648 68.2434 117.333 64 117.333C59.7565 117.333 55.6868 115.648 52.6863 112.647C49.6857 109.646 48 105.577 48 101.333C48.0001 100.027 48.4797 98.7662 49.3478 97.79C50.2158 96.8138 51.412 96.1901 52.7093 96.0373L53.3333 96H74.6666ZM64 32C70.7162 32 77.2622 34.1132 82.7107 38.0402C88.1592 41.9673 92.234 47.5091 94.3578 53.8807C96.4817 60.2523 96.547 67.1306 94.5444 73.5413C92.5418 79.9521 88.573 85.5702 83.2 89.6C82.4649 90.1521 81.5996 90.5048 80.688 90.624L80 90.6666H48C46.846 90.6666 45.7231 90.2923 44.8 89.6C39.427 85.5702 35.4581 79.9521 33.4555 73.5413C31.453 67.1306 31.5182 60.2523 33.6421 53.8807C35.766 47.5091 39.8407 41.9673 45.2892 38.0402C50.7377 34.1132 57.2837 32 64 32Z" fill="#FFED00"/>
</g>
<defs>
<clipPath id="clip0_1_48">
<rect width="128" height="128" fill="white"/>
</clipPath>
</defs>
</svg>
