<svg width="128" height="128" viewBox="0 0 128 128" fill="none" xmlns="http://www.w3.org/2000/svg">
<g clip-path="url(#clip0_1_56)">
<path d="M85.776 10.6666H64C62.5855 10.6666 61.229 11.2285 60.2288 12.2287C59.2286 13.2289 58.6667 14.5855 58.6667 16V77.3333C58.6673 78.6621 58.337 79.9702 57.7055 81.1393C57.0739 82.3085 56.1611 83.3019 55.0494 84.0299C53.9378 84.7579 52.6623 85.1975 51.3381 85.309C50.014 85.4205 48.6829 85.2005 47.4652 84.6687C46.2474 84.1369 45.1813 83.3102 44.3631 82.2631C43.5449 81.2161 43.0004 79.9817 42.7787 78.6715C42.5571 77.3613 42.6653 76.0165 43.0937 74.7586C43.522 73.5007 44.2569 72.3693 45.232 71.4666L45.872 70.9333C46.5334 70.4359 47.07 69.7915 47.4394 69.051C47.8087 68.3105 48.0006 67.4941 48 66.6666V43.5946C48.0007 42.7896 47.8191 41.9948 47.4688 41.27C47.1186 40.5451 46.6088 39.9089 45.9776 39.4091C45.3465 38.9094 44.6104 38.5589 43.8246 38.3842C43.0387 38.2094 42.2235 38.2148 41.44 38.4C31.8884 40.651 23.4976 46.3348 17.864 54.3698C12.2303 62.4048 9.74687 72.2305 10.8862 81.9774C12.0255 91.7243 16.7081 100.712 24.043 107.231C31.378 113.75 40.8534 117.346 50.6667 117.333L51.9627 117.307C62.3405 116.97 72.1808 112.611 79.4035 105.152C86.6262 97.6924 90.6652 87.7165 90.6667 77.3333V62.9333L92.3254 63.7493C98.3093 66.5759 104.768 68.3786 111.472 69.0453C112.214 69.1191 112.963 69.0366 113.67 68.8032C114.378 68.5697 115.029 68.1905 115.582 67.69C116.134 67.1895 116.575 66.5788 116.877 65.8973C117.178 65.2158 117.334 64.4786 117.333 63.7333V42.224C117.333 40.9631 116.886 39.743 116.072 38.7803C115.258 37.8177 114.129 37.1746 112.885 36.9653C107.428 36.0392 102.393 33.4393 98.478 29.5254C94.5632 25.6116 91.9621 20.5774 91.0347 15.12C90.8265 13.8756 90.1839 12.7453 89.2211 11.93C88.2583 11.1146 87.0377 10.667 85.776 10.6666Z" fill="#EB2A2A"/>
</g>
<defs>
<clipPath id="clip0_1_56">
<rect width="128" height="128" fill="white"/>
</clipPath>
</defs>
</svg>
